<svg xmlns="http://www.w3.org/2000/svg" width="188.504" height="56.517" viewBox="0 0 188.504 56.517"><defs><style>.a{fill:#18d3d3;}.b{fill:#333948;}</style></defs><g transform="translate(-0.049 0.005)"><g transform="translate(0.049 -0.005)"><path class="a" d="M63.437,47.208H30.225a2.069,2.069,0,0,0,0,4.133H63.437a2.069,2.069,0,1,0,0-4.133Z" transform="translate(-12.612 -21.016)"/><path class="a" d="M295.031,0H279.315a2.069,2.069,0,0,0,0,4.133h15.716a2.069,2.069,0,1,0,0-4.133Z" transform="translate(-123.523 0.005)"/><path class="a" d="M310.99,23.608H297.205a2.069,2.069,0,0,0,0,4.133H310.99a2.069,2.069,0,1,0,0-4.133Z" transform="translate(-131.488 -10.508)"/><path class="a" d="M325.221,47.21H313.355a2.069,2.069,0,0,0,0,4.133h11.866a2.069,2.069,0,0,0,0-4.133Z" transform="translate(-138.679 -21.018)"/><path class="a" d="M310.99,70.818H297.205a2.069,2.069,0,0,0,0,4.133H310.99a2.069,2.069,0,1,0,0-4.133Z" transform="translate(-131.488 -31.529)"/><path class="a" d="M295.031,94.418H279.315a2.069,2.069,0,0,0,0,4.133h15.716a2.069,2.069,0,1,0,0-4.133Z" transform="translate(-123.523 -42.037)"/><path class="b" d="M80.789,23.608H65.073a2.069,2.069,0,1,0,0,4.133H80.789a2.069,2.069,0,0,0,0-4.133Z" transform="translate(-28.033 -10.508)"/><path class="b" d="M80.789,70.818H65.073a2.069,2.069,0,1,0,0,4.133H80.789a2.069,2.069,0,0,0,0-4.133Z" transform="translate(-28.033 -31.529)"/><path class="b" d="M27.076,44.945a2.064,2.064,0,0,0-4.122,0h0v3.722c-2.064,1.109-4.127,1.243-7.345,1.243A11.284,11.284,0,0,1,4.46,38.333,11.3,11.3,0,0,1,15.627,26.755a13.258,13.258,0,0,1,7.766,2.219h0a2.086,2.086,0,1,0,2.335-3.45,17.111,17.111,0,0,0-10.1-2.9A15.211,15.211,0,0,0,4.532,27.155a16.2,16.2,0,0,0,0,22.373,15.211,15.211,0,0,0,11.095,4.527c4.122,0,7.212-.516,10.1-2.618a3.273,3.273,0,0,0,1.381-2.618V44.934Z" transform="translate(-0.049 -10.072)"/><path class="b" d="M184.986,23.608H169.253a2.069,2.069,0,1,0,0,4.133h15.71a2.069,2.069,0,1,0,0-4.133Z" transform="translate(-74.421 -10.508)"/><path class="b" d="M183.061,47.208H169.253a2.069,2.069,0,1,0,0,4.133h13.785a2.069,2.069,0,0,0,0-4.133Z" transform="translate(-74.421 -21.016)"/><path class="b" d="M184.986,70.818H169.253a2.069,2.069,0,1,0,0,4.133h15.71a2.069,2.069,0,1,0,0-4.133Z" transform="translate(-74.421 -31.529)"/><path class="b" d="M225.127,54.034a15.233,15.233,0,0,1-11.095-4.527,16.2,16.2,0,0,1,0-22.373,15.854,15.854,0,0,1,22.189,0,16.187,16.187,0,0,1,0,22.373A15.211,15.211,0,0,1,225.127,54.034Zm0-27.287A11.3,11.3,0,0,0,213.96,38.324a11.174,11.174,0,1,0,22.334,0A11.3,11.3,0,0,0,225.127,26.747Z" transform="translate(-93.332 -10.063)"/><path class="b" d="M133.053,23.11a2.219,2.219,0,0,0-2.219,2.219V45.483L114.58,23.9A1.975,1.975,0,0,0,113,23.11a2.219,2.219,0,0,0-2.219,2.219v26.45a2.219,2.219,0,0,0,4.438,0V31.326L131.7,53.193A1.98,1.98,0,0,0,135.266,52V25.312A2.219,2.219,0,0,0,133.053,23.11Z" transform="translate(-49.354 -10.287)"/></g></g></svg>